<svg width="1180" height="151" viewBox="0 0 1180 151" fill="none" xmlns="http://www.w3.org/2000/svg">
<g filter="url(#filter0_d_63_481)">
<rect x="192" y="44" width="73" height="73" rx="9" fill="#D9D9D9"/>
</g>
<path d="M236.072 61.776C240.211 61.776 243.496 63.1627 245.928 65.936C248.36 68.6667 249.576 72.3787 249.576 77.072V98H237.032V78.736C237.032 76.688 236.499 75.088 235.432 73.936C234.365 72.7413 232.936 72.144 231.144 72.144C229.267 72.144 227.795 72.7413 226.728 73.936C225.661 75.088 225.128 76.688 225.128 78.736V98H212.584V62.096H225.128V67.216C226.237 65.5947 227.731 64.2933 229.608 63.312C231.485 62.288 233.64 61.776 236.072 61.776Z" fill="black"/>
<path d="M253.48 104.87C253.507 104.117 253.74 103.54 254.18 103.14C254.62 102.733 255.233 102.53 256.02 102.53C256.533 102.53 256.97 102.62 257.33 102.8C257.697 102.973 257.973 103.213 258.16 103.52C258.347 103.82 258.44 104.16 258.44 104.54C258.44 104.993 258.33 105.357 258.11 105.63C257.89 105.897 257.64 106.077 257.36 106.17V106.21C258.167 106.51 258.57 107.083 258.57 107.93C258.57 108.35 258.473 108.72 258.28 109.04C258.087 109.36 257.807 109.61 257.44 109.79C257.073 109.97 256.637 110.06 256.13 110.06C255.297 110.06 254.637 109.86 254.15 109.46C253.67 109.053 253.42 108.433 253.4 107.6H255.31C255.297 107.867 255.353 108.073 255.48 108.22C255.607 108.367 255.797 108.44 256.05 108.44C256.243 108.44 256.393 108.38 256.5 108.26C256.613 108.14 256.67 107.98 256.67 107.78C256.67 107.527 256.587 107.34 256.42 107.22C256.26 107.1 255.997 107.04 255.63 107.04H255.28V105.45H255.62C255.873 105.457 256.087 105.417 256.26 105.33C256.44 105.237 256.53 105.053 256.53 104.78C256.53 104.573 256.48 104.42 256.38 104.32C256.28 104.213 256.143 104.16 255.97 104.16C255.777 104.16 255.633 104.23 255.54 104.37C255.453 104.503 255.403 104.67 255.39 104.87H253.48Z" fill="black"/>
<g filter="url(#filter1_d_63_481)">
<rect x="130" y="59" width="73" height="73" rx="9" fill="#D9D9D9"/>
</g>
<path d="M166.288 115.448C162.704 115.448 159.483 114.701 156.624 113.208C153.808 111.715 151.589 109.581 149.968 106.808C148.347 104.035 147.536 100.771 147.536 97.016C147.536 93.304 148.347 90.0613 149.968 87.288C151.632 84.5147 153.872 82.3813 156.688 80.888C159.547 79.3947 162.768 78.648 166.352 78.648C169.936 78.648 173.136 79.3947 175.952 80.888C178.811 82.3813 181.051 84.5147 182.672 87.288C184.336 90.0613 185.168 93.304 185.168 97.016C185.168 100.728 184.336 103.992 182.672 106.808C181.051 109.581 178.811 111.715 175.952 113.208C173.093 114.701 169.872 115.448 166.288 115.448ZM166.288 104.568C168.037 104.568 169.488 103.928 170.64 102.648C171.835 101.325 172.432 99.448 172.432 97.016C172.432 94.584 171.835 92.728 170.64 91.448C169.488 90.168 168.059 89.528 166.352 89.528C164.645 89.528 163.216 90.168 162.064 91.448C160.912 92.728 160.336 94.584 160.336 97.016C160.336 99.4907 160.891 101.368 162 102.648C163.109 103.928 164.539 104.568 166.288 104.568Z" fill="black"/>
<path d="M188.48 116.87C188.507 116.117 188.74 115.54 189.18 115.14C189.62 114.733 190.233 114.53 191.02 114.53C191.533 114.53 191.97 114.62 192.33 114.8C192.697 114.973 192.973 115.213 193.16 115.52C193.347 115.82 193.44 116.16 193.44 116.54C193.44 116.993 193.33 117.357 193.11 117.63C192.89 117.897 192.64 118.077 192.36 118.17V118.21C193.167 118.51 193.57 119.083 193.57 119.93C193.57 120.35 193.473 120.72 193.28 121.04C193.087 121.36 192.807 121.61 192.44 121.79C192.073 121.97 191.637 122.06 191.13 122.06C190.297 122.06 189.637 121.86 189.15 121.46C188.67 121.053 188.42 120.433 188.4 119.6H190.31C190.297 119.867 190.353 120.073 190.48 120.22C190.607 120.367 190.797 120.44 191.05 120.44C191.243 120.44 191.393 120.38 191.5 120.26C191.613 120.14 191.67 119.98 191.67 119.78C191.67 119.527 191.587 119.34 191.42 119.22C191.26 119.1 190.997 119.04 190.63 119.04H190.28V117.45H190.62C190.873 117.457 191.087 117.417 191.26 117.33C191.44 117.237 191.53 117.053 191.53 116.78C191.53 116.573 191.48 116.42 191.38 116.32C191.28 116.213 191.143 116.16 190.97 116.16C190.777 116.16 190.633 116.23 190.54 116.37C190.453 116.503 190.403 116.67 190.39 116.87H188.48Z" fill="black"/>
<g filter="url(#filter2_d_63_481)">
<rect x="253" y="17" width="73" height="73" rx="9" fill="#D9D9D9"/>
</g>
<path d="M269.536 52.016C269.536 48.304 270.304 45.0613 271.84 42.288C273.376 39.5147 275.509 37.3813 278.24 35.888C281.013 34.3947 284.171 33.648 287.712 33.648C292.277 33.648 296.117 34.9067 299.232 37.424C302.347 39.8987 304.352 43.376 305.248 47.856H291.936C291.168 45.5093 289.675 44.336 287.456 44.336C285.877 44.336 284.619 44.9973 283.68 46.32C282.784 47.6 282.336 49.4987 282.336 52.016C282.336 54.5333 282.784 56.4533 283.68 57.776C284.619 59.0987 285.877 59.76 287.456 59.76C289.717 59.76 291.211 58.5867 291.936 56.24H305.248C304.352 60.6773 302.347 64.1547 299.232 66.672C296.117 69.1893 292.277 70.448 287.712 70.448C284.171 70.448 281.013 69.7013 278.24 68.208C275.509 66.7147 273.376 64.5813 271.84 61.808C270.304 59.0347 269.536 55.7707 269.536 52.016Z" fill="black"/>
<g filter="url(#filter3_d_63_481)">
<rect x="303" y="66" width="73" height="73" rx="9" fill="#D9D9D9"/>
</g>
<path d="M356.32 86.096V122H343.712V116.88C342.645 118.501 341.173 119.824 339.296 120.848C337.419 121.829 335.264 122.32 332.832 122.32C328.651 122.32 325.344 120.955 322.912 118.224C320.523 115.451 319.328 111.696 319.328 106.96V86.096H331.808V105.36C331.808 107.408 332.341 109.029 333.408 110.224C334.517 111.376 335.968 111.952 337.76 111.952C339.595 111.952 341.045 111.376 342.112 110.224C343.179 109.029 343.712 107.408 343.712 105.36V86.096H356.32Z" fill="black"/>
<path d="M364.51 128.8V127.18L367.58 122.8H369.73V127.1H370.5V128.8H369.73V130H367.75V128.8H364.51ZM367.9 125.01L366.52 127.1H367.9V125.01Z" fill="black"/>
<g filter="url(#filter4_d_63_481)">
<rect x="74" y="31" width="73" height="73" rx="9" fill="#D9D9D9"/>
</g>
<path d="M88.048 70.344C88.048 65.9067 88.9653 61.96 90.8 58.504C92.6773 55.0053 95.3227 52.296 98.736 50.376C102.149 48.4133 106.075 47.432 110.512 47.432C116.144 47.432 120.88 48.9467 124.72 51.976C128.56 54.9627 131.035 59.0373 132.144 64.2H118.64C117.829 62.4933 116.699 61.192 115.248 60.296C113.84 59.4 112.197 58.952 110.32 58.952C107.419 58.952 105.093 59.9973 103.344 62.088C101.637 64.136 100.784 66.888 100.784 70.344C100.784 73.8427 101.637 76.6373 103.344 78.728C105.093 80.776 107.419 81.8 110.32 81.8C112.197 81.8 113.84 81.352 115.248 80.456C116.699 79.56 117.829 78.2587 118.64 76.552H132.144C131.035 81.7147 128.56 85.8107 124.72 88.84C120.88 91.8267 116.144 93.32 110.512 93.32C106.075 93.32 102.149 92.36 98.736 90.44C95.3227 88.4773 92.6773 85.768 90.8 82.312C88.9653 78.8133 88.048 74.824 88.048 70.344Z" fill="black"/>
<path d="M137.18 90.53V88.69H140.26V96H138.21V90.53H137.18Z" fill="black"/>
<g filter="url(#filter5_d_63_481)">
<rect x="339" y="15" width="73" height="73" rx="9" fill="#D9D9D9"/>
</g>
<path d="M377.128 40.432C378.536 38.384 380.243 36.7627 382.248 35.568C384.253 34.3733 386.408 33.776 388.712 33.776V47.152H385.192C382.461 47.152 380.435 47.6853 379.112 48.752C377.789 49.8187 377.128 51.6747 377.128 54.32V70H364.584V34.096H377.128V40.432Z" fill="black"/>
<path d="M398.18 75.53V73.69H401.26V81H399.21V75.53H398.18Z" fill="black"/>
<g filter="url(#filter6_d_63_481)">
<rect x="402" y="39" width="73" height="73" rx="9" fill="#D9D9D9"/>
</g>
<path d="M438.88 92.448C435.637 92.448 432.736 91.9147 430.176 90.848C427.659 89.7387 425.653 88.2453 424.16 86.368C422.709 84.448 421.899 82.2933 421.728 79.904H433.888C434.059 81.056 434.592 81.952 435.488 82.592C436.384 83.232 437.493 83.552 438.816 83.552C439.84 83.552 440.651 83.3387 441.248 82.912C441.845 82.4853 442.144 81.9307 442.144 81.248C442.144 80.352 441.653 79.6907 440.672 79.264C439.691 78.8373 438.069 78.368 435.808 77.856C433.248 77.344 431.115 76.768 429.408 76.128C427.701 75.488 426.208 74.4427 424.928 72.992C423.691 71.5413 423.072 69.5787 423.072 67.104C423.072 64.9707 423.648 63.0507 424.8 61.344C425.952 59.5947 427.637 58.208 429.856 57.184C432.117 56.16 434.827 55.648 437.984 55.648C442.677 55.648 446.368 56.8 449.056 59.104C451.744 61.408 453.301 64.4373 453.728 68.192H442.4C442.187 67.04 441.675 66.1653 440.864 65.568C440.096 64.928 439.051 64.608 437.728 64.608C436.704 64.608 435.915 64.8 435.36 65.184C434.848 65.568 434.592 66.1013 434.592 66.784C434.592 67.6373 435.083 68.2987 436.064 68.768C437.045 69.1947 438.624 69.6427 440.8 70.112C443.403 70.6667 445.557 71.2853 447.264 71.968C449.013 72.6507 450.528 73.76 451.808 75.296C453.131 76.7893 453.792 78.8373 453.792 81.44C453.792 83.5307 453.173 85.408 451.936 87.072C450.741 88.736 449.013 90.0587 446.752 91.04C444.533 91.9787 441.909 92.448 438.88 92.448Z" fill="black"/>
<path d="M463.33 102.43C463.977 101.923 464.507 101.487 464.92 101.12C465.333 100.753 465.68 100.377 465.96 99.99C466.24 99.5967 466.38 99.2233 466.38 98.87C466.38 98.6567 466.33 98.49 466.23 98.37C466.137 98.25 465.997 98.19 465.81 98.19C465.617 98.19 465.467 98.2733 465.36 98.44C465.253 98.6 465.203 98.8367 465.21 99.15H463.31C463.33 98.5567 463.46 98.0667 463.7 97.68C463.94 97.2867 464.253 97 464.64 96.82C465.027 96.6333 465.457 96.54 465.93 96.54C466.75 96.54 467.36 96.7433 467.76 97.15C468.16 97.5567 468.36 98.0833 468.36 98.73C468.36 99.4233 468.127 100.073 467.66 100.68C467.2 101.287 466.623 101.83 465.93 102.31H468.43V103.9H463.33V102.43Z" fill="black"/>
<g filter="url(#filter7_d_63_481)">
<rect x="469" y="26" width="73" height="73" rx="9" fill="#D9D9D9"/>
</g>
<path d="M505.288 81.448C501.704 81.448 498.483 80.7013 495.624 79.208C492.808 77.7147 490.589 75.5813 488.968 72.808C487.347 70.0347 486.536 66.7707 486.536 63.016C486.536 59.304 487.347 56.0613 488.968 53.288C490.632 50.5147 492.872 48.3813 495.688 46.888C498.547 45.3947 501.768 44.648 505.352 44.648C508.936 44.648 512.136 45.3947 514.952 46.888C517.811 48.3813 520.051 50.5147 521.672 53.288C523.336 56.0613 524.168 59.304 524.168 63.016C524.168 66.728 523.336 69.992 521.672 72.808C520.051 75.5813 517.811 77.7147 514.952 79.208C512.093 80.7013 508.872 81.448 505.288 81.448ZM505.288 70.568C507.037 70.568 508.488 69.928 509.64 68.648C510.835 67.3253 511.432 65.448 511.432 63.016C511.432 60.584 510.835 58.728 509.64 57.448C508.488 56.168 507.059 55.528 505.352 55.528C503.645 55.528 502.216 56.168 501.064 57.448C499.912 58.728 499.336 60.584 499.336 63.016C499.336 65.4907 499.891 67.368 501 68.648C502.109 69.928 503.539 70.568 505.288 70.568Z" fill="black"/>
<path d="M530.33 87.43C530.977 86.9233 531.507 86.4867 531.92 86.12C532.333 85.7533 532.68 85.3767 532.96 84.99C533.24 84.5967 533.38 84.2233 533.38 83.87C533.38 83.6567 533.33 83.49 533.23 83.37C533.137 83.25 532.997 83.19 532.81 83.19C532.617 83.19 532.467 83.2733 532.36 83.44C532.253 83.6 532.203 83.8367 532.21 84.15H530.31C530.33 83.5567 530.46 83.0667 530.7 82.68C530.94 82.2867 531.253 82 531.64 81.82C532.027 81.6333 532.457 81.54 532.93 81.54C533.75 81.54 534.36 81.7433 534.76 82.15C535.16 82.5567 535.36 83.0833 535.36 83.73C535.36 84.4233 535.127 85.0733 534.66 85.68C534.2 86.2867 533.623 86.83 532.93 87.31H535.43V88.9H530.33V87.43Z" fill="black"/>
<path d="M580.152 77.512C580.152 74.728 580.648 72.296 581.64 70.216C582.664 68.136 584.056 66.536 585.816 65.416C587.576 64.296 589.528 63.736 591.672 63.736C593.4 63.736 594.936 64.104 596.28 64.84C597.656 65.544 598.728 66.52 599.496 67.768V55.48H608.952V91H599.496V87.256C598.76 88.504 597.72 89.496 596.376 90.232C595.032 90.968 593.448 91.336 591.624 91.336C589.48 91.336 587.528 90.776 585.768 89.656C584.04 88.536 582.664 86.936 581.64 84.856C580.648 82.744 580.152 80.296 580.152 77.512ZM599.544 77.512C599.544 75.784 599.064 74.424 598.104 73.432C597.176 72.44 596.024 71.944 594.648 71.944C593.24 71.944 592.072 72.44 591.144 73.432C590.216 74.392 589.752 75.752 589.752 77.512C589.752 79.24 590.216 80.616 591.144 81.64C592.072 82.632 593.24 83.128 594.648 83.128C596.024 83.128 597.176 82.632 598.104 81.64C599.064 80.648 599.544 79.272 599.544 77.512ZM640.041 77.224C640.041 77.96 639.993 78.696 639.897 79.432H622.089C622.185 80.904 622.585 82.008 623.289 82.744C624.025 83.448 624.953 83.8 626.073 83.8C627.641 83.8 628.761 83.096 629.433 81.688H639.465C639.049 83.544 638.233 85.208 637.017 86.68C635.833 88.12 634.329 89.256 632.505 90.088C630.681 90.92 628.665 91.336 626.457 91.336C623.801 91.336 621.433 90.776 619.353 89.656C617.305 88.536 615.689 86.936 614.505 84.856C613.353 82.776 612.777 80.328 612.777 77.512C612.777 74.696 613.353 72.264 614.505 70.216C615.657 68.136 617.257 66.536 619.305 65.416C621.385 64.296 623.769 63.736 626.457 63.736C629.113 63.736 631.465 64.28 633.513 65.368C635.561 66.456 637.161 68.024 638.313 70.072C639.465 72.088 640.041 74.472 640.041 77.224ZM630.441 74.872C630.441 73.72 630.057 72.824 629.289 72.184C628.521 71.512 627.561 71.176 626.409 71.176C625.257 71.176 624.313 71.496 623.577 72.136C622.841 72.744 622.361 73.656 622.137 74.872H630.441Z" fill="black"/>
<g filter="url(#filter8_d_63_481)">
<rect x="811" y="34" width="73" height="73" rx="9" fill="#D9D9D9"/>
</g>
<path d="M853.984 88L847.52 78.976L842.4 88H828.64L840.608 69.376L828.128 52.096H842.208L848.672 61.12L853.856 52.096H867.616L855.392 70.4L868.064 88H853.984Z" fill="black"/>
<path d="M872.48 94.87C872.507 94.1167 872.74 93.54 873.18 93.14C873.62 92.7333 874.233 92.53 875.02 92.53C875.533 92.53 875.97 92.62 876.33 92.8C876.697 92.9733 876.973 93.2133 877.16 93.52C877.347 93.82 877.44 94.16 877.44 94.54C877.44 94.9933 877.33 95.3567 877.11 95.63C876.89 95.8967 876.64 96.0767 876.36 96.17V96.21C877.167 96.51 877.57 97.0833 877.57 97.93C877.57 98.35 877.473 98.72 877.28 99.04C877.087 99.36 876.807 99.61 876.44 99.79C876.073 99.97 875.637 100.06 875.13 100.06C874.297 100.06 873.637 99.86 873.15 99.46C872.67 99.0533 872.42 98.4333 872.4 97.6H874.31C874.297 97.8667 874.353 98.0733 874.48 98.22C874.607 98.3667 874.797 98.44 875.05 98.44C875.243 98.44 875.393 98.38 875.5 98.26C875.613 98.14 875.67 97.98 875.67 97.78C875.67 97.5267 875.587 97.34 875.42 97.22C875.26 97.1 874.997 97.04 874.63 97.04H874.28V95.45H874.62C874.873 95.4567 875.087 95.4167 875.26 95.33C875.44 95.2367 875.53 95.0533 875.53 94.78C875.53 94.5733 875.48 94.42 875.38 94.32C875.28 94.2133 875.143 94.16 874.97 94.16C874.777 94.16 874.633 94.23 874.54 94.37C874.453 94.5033 874.403 94.67 874.39 94.87H872.48Z" fill="black"/>
<g filter="url(#filter9_d_63_481)">
<rect x="746" y="55" width="73" height="73" rx="9" fill="#D9D9D9"/>
</g>
<path d="M800.888 97.632C800.888 98.6133 800.824 99.5947 800.696 100.576H776.952C777.08 102.539 777.613 104.011 778.552 104.992C779.533 105.931 780.771 106.4 782.264 106.4C784.355 106.4 785.848 105.461 786.744 103.584H800.12C799.565 106.059 798.477 108.277 796.856 110.24C795.277 112.16 793.272 113.675 790.84 114.784C788.408 115.893 785.72 116.448 782.776 116.448C779.235 116.448 776.077 115.701 773.304 114.208C770.573 112.715 768.419 110.581 766.84 107.808C765.304 105.035 764.536 101.771 764.536 98.016C764.536 94.2613 765.304 91.0187 766.84 88.288C768.376 85.5147 770.509 83.3813 773.24 81.888C776.013 80.3947 779.192 79.648 782.776 79.648C786.317 79.648 789.453 80.3733 792.184 81.824C794.915 83.2747 797.048 85.3653 798.584 88.096C800.12 90.784 800.888 93.9627 800.888 97.632ZM788.088 94.496C788.088 92.96 787.576 91.7653 786.552 90.912C785.528 90.016 784.248 89.568 782.712 89.568C781.176 89.568 779.917 89.9947 778.936 90.848C777.955 91.6587 777.315 92.8747 777.016 94.496H788.088ZM790.52 71.072L774.52 77.344V68.832L790.52 61.6V71.072Z" fill="black"/>
<path d="M804.48 112.87C804.507 112.117 804.74 111.54 805.18 111.14C805.62 110.733 806.233 110.53 807.02 110.53C807.533 110.53 807.97 110.62 808.33 110.8C808.697 110.973 808.973 111.213 809.16 111.52C809.347 111.82 809.44 112.16 809.44 112.54C809.44 112.993 809.33 113.357 809.11 113.63C808.89 113.897 808.64 114.077 808.36 114.17V114.21C809.167 114.51 809.57 115.083 809.57 115.93C809.57 116.35 809.473 116.72 809.28 117.04C809.087 117.36 808.807 117.61 808.44 117.79C808.073 117.97 807.637 118.06 807.13 118.06C806.297 118.06 805.637 117.86 805.15 117.46C804.67 117.053 804.42 116.433 804.4 115.6H806.31C806.297 115.867 806.353 116.073 806.48 116.22C806.607 116.367 806.797 116.44 807.05 116.44C807.243 116.44 807.393 116.38 807.5 116.26C807.613 116.14 807.67 115.98 807.67 115.78C807.67 115.527 807.587 115.34 807.42 115.22C807.26 115.1 806.997 115.04 806.63 115.04H806.28V113.45H806.62C806.873 113.457 807.087 113.417 807.26 113.33C807.44 113.237 807.53 113.053 807.53 112.78C807.53 112.573 807.48 112.42 807.38 112.32C807.28 112.213 807.143 112.16 806.97 112.16C806.777 112.16 806.633 112.23 806.54 112.37C806.453 112.503 806.403 112.67 806.39 112.87H804.48Z" fill="black"/>
<g filter="url(#filter10_d_63_481)">
<rect x="876" y="13" width="73" height="73" rx="9" fill="#D9D9D9"/>
</g>
<path d="M912.92 32.768C910.701 32.768 908.909 32.1707 907.544 30.976C906.221 29.7387 905.56 28.2027 905.56 26.368C905.56 24.4907 906.221 22.9333 907.544 21.696C908.909 20.4587 910.701 19.84 912.92 19.84C915.096 19.84 916.845 20.4587 918.168 21.696C919.533 22.9333 920.216 24.4907 920.216 26.368C920.216 28.2027 919.533 29.7387 918.168 30.976C916.845 32.1707 915.096 32.768 912.92 32.768ZM919.128 36.096V72H906.584V36.096H919.128Z" fill="black"/>
<g filter="url(#filter11_d_63_481)">
<rect x="939" y="51" width="73" height="73" rx="9" fill="#D9D9D9"/>
</g>
<path d="M959.536 89.016C959.536 85.304 960.304 82.0613 961.84 79.288C963.376 76.5147 965.509 74.3813 968.24 72.888C971.013 71.3947 974.171 70.648 977.712 70.648C982.277 70.648 986.117 71.9067 989.232 74.424C992.347 76.8987 994.352 80.376 995.248 84.856H981.936C981.168 82.5093 979.675 81.336 977.456 81.336C975.877 81.336 974.619 81.9973 973.68 83.32C972.784 84.6 972.336 86.4987 972.336 89.016C972.336 91.5333 972.784 93.4533 973.68 94.776C974.619 96.0987 975.877 96.76 977.456 96.76C979.717 96.76 981.211 95.5867 981.936 93.24H995.248C994.352 97.6773 992.347 101.155 989.232 103.672C986.117 106.189 982.277 107.448 977.712 107.448C974.171 107.448 971.013 106.701 968.24 105.208C965.509 103.715 963.376 101.581 961.84 98.808C960.304 96.0347 959.536 92.7707 959.536 89.016Z" fill="black"/>
<path d="M1000.51 113.8V112.18L1003.58 107.8H1005.73V112.1H1006.5V113.8H1005.73V115H1003.75V113.8H1000.51ZM1003.9 110.01L1002.52 112.1H1003.9V110.01Z" fill="black"/>
<g filter="url(#filter12_d_63_481)">
<rect x="679" y="31" width="73" height="73" rx="9" fill="#D9D9D9"/>
</g>
<path d="M716.128 81.4H730.144V91H703.584V45.88H716.128V81.4Z" fill="black"/>
<path d="M742.18 90.53V88.69H745.26V96H743.21V90.53H742.18Z" fill="black"/>
<g filter="url(#filter13_d_63_481)">
<rect x="1004" y="15" width="73" height="73" rx="9" fill="#D9D9D9"/>
</g>
<path d="M1046.29 70.448C1042.7 70.448 1039.48 69.7013 1036.62 68.208C1033.81 66.7147 1031.59 64.5813 1029.97 61.808C1028.35 59.0347 1027.54 55.7707 1027.54 52.016C1027.54 48.304 1028.35 45.0613 1029.97 42.288C1031.63 39.5147 1033.87 37.3813 1036.69 35.888C1039.55 34.3947 1042.77 33.648 1046.35 33.648C1049.94 33.648 1053.14 34.3947 1055.95 35.888C1058.81 37.3813 1061.05 39.5147 1062.67 42.288C1064.34 45.0613 1065.17 48.304 1065.17 52.016C1065.17 55.728 1064.34 58.992 1062.67 61.808C1061.05 64.5813 1058.81 66.7147 1055.95 68.208C1053.09 69.7013 1049.87 70.448 1046.29 70.448ZM1046.29 59.568C1048.04 59.568 1049.49 58.928 1050.64 57.648C1051.83 56.3253 1052.43 54.448 1052.43 52.016C1052.43 49.584 1051.83 47.728 1050.64 46.448C1049.49 45.168 1048.06 44.528 1046.35 44.528C1044.65 44.528 1043.22 45.168 1042.06 46.448C1040.91 47.728 1040.34 49.584 1040.34 52.016C1040.34 54.4907 1040.89 56.368 1042 57.648C1043.11 58.928 1044.54 59.568 1046.29 59.568Z" fill="black"/>
<path d="M1063.18 75.53V73.69H1066.26V81H1064.21V75.53H1063.18Z" fill="black"/>
<defs>
<filter id="filter0_d_63_481" x="184" y="40" width="89" height="89" filterUnits="userSpaceOnUse" color-interpolation-filters="sRGB">
<feFlood flood-opacity="0" result="BackgroundImageFix"/>
<feColorMatrix in="SourceAlpha" type="matrix" values="0 0 0 0 0 0 0 0 0 0 0 0 0 0 0 0 0 0 127 0" result="hardAlpha"/>
<feMorphology radius="4" operator="dilate" in="SourceAlpha" result="effect1_dropShadow_63_481"/>
<feOffset dy="4"/>
<feGaussianBlur stdDeviation="2"/>
<feComposite in2="hardAlpha" operator="out"/>
<feColorMatrix type="matrix" values="0 0 0 0 0 0 0 0 0 0 0 0 0 0 0 0 0 0 0.25 0"/>
<feBlend mode="normal" in2="BackgroundImageFix" result="effect1_dropShadow_63_481"/>
<feBlend mode="normal" in="SourceGraphic" in2="effect1_dropShadow_63_481" result="shape"/>
</filter>
<filter id="filter1_d_63_481" x="122" y="55" width="89" height="89" filterUnits="userSpaceOnUse" color-interpolation-filters="sRGB">
<feFlood flood-opacity="0" result="BackgroundImageFix"/>
<feColorMatrix in="SourceAlpha" type="matrix" values="0 0 0 0 0 0 0 0 0 0 0 0 0 0 0 0 0 0 127 0" result="hardAlpha"/>
<feMorphology radius="4" operator="dilate" in="SourceAlpha" result="effect1_dropShadow_63_481"/>
<feOffset dy="4"/>
<feGaussianBlur stdDeviation="2"/>
<feComposite in2="hardAlpha" operator="out"/>
<feColorMatrix type="matrix" values="0 0 0 0 0 0 0 0 0 0 0 0 0 0 0 0 0 0 0.25 0"/>
<feBlend mode="normal" in2="BackgroundImageFix" result="effect1_dropShadow_63_481"/>
<feBlend mode="normal" in="SourceGraphic" in2="effect1_dropShadow_63_481" result="shape"/>
</filter>
<filter id="filter2_d_63_481" x="245" y="13" width="89" height="89" filterUnits="userSpaceOnUse" color-interpolation-filters="sRGB">
<feFlood flood-opacity="0" result="BackgroundImageFix"/>
<feColorMatrix in="SourceAlpha" type="matrix" values="0 0 0 0 0 0 0 0 0 0 0 0 0 0 0 0 0 0 127 0" result="hardAlpha"/>
<feMorphology radius="4" operator="dilate" in="SourceAlpha" result="effect1_dropShadow_63_481"/>
<feOffset dy="4"/>
<feGaussianBlur stdDeviation="2"/>
<feComposite in2="hardAlpha" operator="out"/>
<feColorMatrix type="matrix" values="0 0 0 0 0 0 0 0 0 0 0 0 0 0 0 0 0 0 0.25 0"/>
<feBlend mode="normal" in2="BackgroundImageFix" result="effect1_dropShadow_63_481"/>
<feBlend mode="normal" in="SourceGraphic" in2="effect1_dropShadow_63_481" result="shape"/>
</filter>
<filter id="filter3_d_63_481" x="295" y="62" width="89" height="89" filterUnits="userSpaceOnUse" color-interpolation-filters="sRGB">
<feFlood flood-opacity="0" result="BackgroundImageFix"/>
<feColorMatrix in="SourceAlpha" type="matrix" values="0 0 0 0 0 0 0 0 0 0 0 0 0 0 0 0 0 0 127 0" result="hardAlpha"/>
<feMorphology radius="4" operator="dilate" in="SourceAlpha" result="effect1_dropShadow_63_481"/>
<feOffset dy="4"/>
<feGaussianBlur stdDeviation="2"/>
<feComposite in2="hardAlpha" operator="out"/>
<feColorMatrix type="matrix" values="0 0 0 0 0 0 0 0 0 0 0 0 0 0 0 0 0 0 0.25 0"/>
<feBlend mode="normal" in2="BackgroundImageFix" result="effect1_dropShadow_63_481"/>
<feBlend mode="normal" in="SourceGraphic" in2="effect1_dropShadow_63_481" result="shape"/>
</filter>
<filter id="filter4_d_63_481" x="66" y="27" width="89" height="89" filterUnits="userSpaceOnUse" color-interpolation-filters="sRGB">
<feFlood flood-opacity="0" result="BackgroundImageFix"/>
<feColorMatrix in="SourceAlpha" type="matrix" values="0 0 0 0 0 0 0 0 0 0 0 0 0 0 0 0 0 0 127 0" result="hardAlpha"/>
<feMorphology radius="4" operator="dilate" in="SourceAlpha" result="effect1_dropShadow_63_481"/>
<feOffset dy="4"/>
<feGaussianBlur stdDeviation="2"/>
<feComposite in2="hardAlpha" operator="out"/>
<feColorMatrix type="matrix" values="0 0 0 0 0 0 0 0 0 0 0 0 0 0 0 0 0 0 0.25 0"/>
<feBlend mode="normal" in2="BackgroundImageFix" result="effect1_dropShadow_63_481"/>
<feBlend mode="normal" in="SourceGraphic" in2="effect1_dropShadow_63_481" result="shape"/>
</filter>
<filter id="filter5_d_63_481" x="331" y="11" width="89" height="89" filterUnits="userSpaceOnUse" color-interpolation-filters="sRGB">
<feFlood flood-opacity="0" result="BackgroundImageFix"/>
<feColorMatrix in="SourceAlpha" type="matrix" values="0 0 0 0 0 0 0 0 0 0 0 0 0 0 0 0 0 0 127 0" result="hardAlpha"/>
<feMorphology radius="4" operator="dilate" in="SourceAlpha" result="effect1_dropShadow_63_481"/>
<feOffset dy="4"/>
<feGaussianBlur stdDeviation="2"/>
<feComposite in2="hardAlpha" operator="out"/>
<feColorMatrix type="matrix" values="0 0 0 0 0 0 0 0 0 0 0 0 0 0 0 0 0 0 0.25 0"/>
<feBlend mode="normal" in2="BackgroundImageFix" result="effect1_dropShadow_63_481"/>
<feBlend mode="normal" in="SourceGraphic" in2="effect1_dropShadow_63_481" result="shape"/>
</filter>
<filter id="filter6_d_63_481" x="394" y="35" width="89" height="89" filterUnits="userSpaceOnUse" color-interpolation-filters="sRGB">
<feFlood flood-opacity="0" result="BackgroundImageFix"/>
<feColorMatrix in="SourceAlpha" type="matrix" values="0 0 0 0 0 0 0 0 0 0 0 0 0 0 0 0 0 0 127 0" result="hardAlpha"/>
<feMorphology radius="4" operator="dilate" in="SourceAlpha" result="effect1_dropShadow_63_481"/>
<feOffset dy="4"/>
<feGaussianBlur stdDeviation="2"/>
<feComposite in2="hardAlpha" operator="out"/>
<feColorMatrix type="matrix" values="0 0 0 0 0 0 0 0 0 0 0 0 0 0 0 0 0 0 0.25 0"/>
<feBlend mode="normal" in2="BackgroundImageFix" result="effect1_dropShadow_63_481"/>
<feBlend mode="normal" in="SourceGraphic" in2="effect1_dropShadow_63_481" result="shape"/>
</filter>
<filter id="filter7_d_63_481" x="461" y="22" width="89" height="89" filterUnits="userSpaceOnUse" color-interpolation-filters="sRGB">
<feFlood flood-opacity="0" result="BackgroundImageFix"/>
<feColorMatrix in="SourceAlpha" type="matrix" values="0 0 0 0 0 0 0 0 0 0 0 0 0 0 0 0 0 0 127 0" result="hardAlpha"/>
<feMorphology radius="4" operator="dilate" in="SourceAlpha" result="effect1_dropShadow_63_481"/>
<feOffset dy="4"/>
<feGaussianBlur stdDeviation="2"/>
<feComposite in2="hardAlpha" operator="out"/>
<feColorMatrix type="matrix" values="0 0 0 0 0 0 0 0 0 0 0 0 0 0 0 0 0 0 0.25 0"/>
<feBlend mode="normal" in2="BackgroundImageFix" result="effect1_dropShadow_63_481"/>
<feBlend mode="normal" in="SourceGraphic" in2="effect1_dropShadow_63_481" result="shape"/>
</filter>
<filter id="filter8_d_63_481" x="803" y="30" width="89" height="89" filterUnits="userSpaceOnUse" color-interpolation-filters="sRGB">
<feFlood flood-opacity="0" result="BackgroundImageFix"/>
<feColorMatrix in="SourceAlpha" type="matrix" values="0 0 0 0 0 0 0 0 0 0 0 0 0 0 0 0 0 0 127 0" result="hardAlpha"/>
<feMorphology radius="4" operator="dilate" in="SourceAlpha" result="effect1_dropShadow_63_481"/>
<feOffset dy="4"/>
<feGaussianBlur stdDeviation="2"/>
<feComposite in2="hardAlpha" operator="out"/>
<feColorMatrix type="matrix" values="0 0 0 0 0 0 0 0 0 0 0 0 0 0 0 0 0 0 0.25 0"/>
<feBlend mode="normal" in2="BackgroundImageFix" result="effect1_dropShadow_63_481"/>
<feBlend mode="normal" in="SourceGraphic" in2="effect1_dropShadow_63_481" result="shape"/>
</filter>
<filter id="filter9_d_63_481" x="738" y="51" width="89" height="89" filterUnits="userSpaceOnUse" color-interpolation-filters="sRGB">
<feFlood flood-opacity="0" result="BackgroundImageFix"/>
<feColorMatrix in="SourceAlpha" type="matrix" values="0 0 0 0 0 0 0 0 0 0 0 0 0 0 0 0 0 0 127 0" result="hardAlpha"/>
<feMorphology radius="4" operator="dilate" in="SourceAlpha" result="effect1_dropShadow_63_481"/>
<feOffset dy="4"/>
<feGaussianBlur stdDeviation="2"/>
<feComposite in2="hardAlpha" operator="out"/>
<feColorMatrix type="matrix" values="0 0 0 0 0 0 0 0 0 0 0 0 0 0 0 0 0 0 0.25 0"/>
<feBlend mode="normal" in2="BackgroundImageFix" result="effect1_dropShadow_63_481"/>
<feBlend mode="normal" in="SourceGraphic" in2="effect1_dropShadow_63_481" result="shape"/>
</filter>
<filter id="filter10_d_63_481" x="868" y="9" width="89" height="89" filterUnits="userSpaceOnUse" color-interpolation-filters="sRGB">
<feFlood flood-opacity="0" result="BackgroundImageFix"/>
<feColorMatrix in="SourceAlpha" type="matrix" values="0 0 0 0 0 0 0 0 0 0 0 0 0 0 0 0 0 0 127 0" result="hardAlpha"/>
<feMorphology radius="4" operator="dilate" in="SourceAlpha" result="effect1_dropShadow_63_481"/>
<feOffset dy="4"/>
<feGaussianBlur stdDeviation="2"/>
<feComposite in2="hardAlpha" operator="out"/>
<feColorMatrix type="matrix" values="0 0 0 0 0 0 0 0 0 0 0 0 0 0 0 0 0 0 0.25 0"/>
<feBlend mode="normal" in2="BackgroundImageFix" result="effect1_dropShadow_63_481"/>
<feBlend mode="normal" in="SourceGraphic" in2="effect1_dropShadow_63_481" result="shape"/>
</filter>
<filter id="filter11_d_63_481" x="931" y="47" width="89" height="89" filterUnits="userSpaceOnUse" color-interpolation-filters="sRGB">
<feFlood flood-opacity="0" result="BackgroundImageFix"/>
<feColorMatrix in="SourceAlpha" type="matrix" values="0 0 0 0 0 0 0 0 0 0 0 0 0 0 0 0 0 0 127 0" result="hardAlpha"/>
<feMorphology radius="4" operator="dilate" in="SourceAlpha" result="effect1_dropShadow_63_481"/>
<feOffset dy="4"/>
<feGaussianBlur stdDeviation="2"/>
<feComposite in2="hardAlpha" operator="out"/>
<feColorMatrix type="matrix" values="0 0 0 0 0 0 0 0 0 0 0 0 0 0 0 0 0 0 0.25 0"/>
<feBlend mode="normal" in2="BackgroundImageFix" result="effect1_dropShadow_63_481"/>
<feBlend mode="normal" in="SourceGraphic" in2="effect1_dropShadow_63_481" result="shape"/>
</filter>
<filter id="filter12_d_63_481" x="671" y="27" width="89" height="89" filterUnits="userSpaceOnUse" color-interpolation-filters="sRGB">
<feFlood flood-opacity="0" result="BackgroundImageFix"/>
<feColorMatrix in="SourceAlpha" type="matrix" values="0 0 0 0 0 0 0 0 0 0 0 0 0 0 0 0 0 0 127 0" result="hardAlpha"/>
<feMorphology radius="4" operator="dilate" in="SourceAlpha" result="effect1_dropShadow_63_481"/>
<feOffset dy="4"/>
<feGaussianBlur stdDeviation="2"/>
<feComposite in2="hardAlpha" operator="out"/>
<feColorMatrix type="matrix" values="0 0 0 0 0 0 0 0 0 0 0 0 0 0 0 0 0 0 0.25 0"/>
<feBlend mode="normal" in2="BackgroundImageFix" result="effect1_dropShadow_63_481"/>
<feBlend mode="normal" in="SourceGraphic" in2="effect1_dropShadow_63_481" result="shape"/>
</filter>
<filter id="filter13_d_63_481" x="996" y="11" width="89" height="89" filterUnits="userSpaceOnUse" color-interpolation-filters="sRGB">
<feFlood flood-opacity="0" result="BackgroundImageFix"/>
<feColorMatrix in="SourceAlpha" type="matrix" values="0 0 0 0 0 0 0 0 0 0 0 0 0 0 0 0 0 0 127 0" result="hardAlpha"/>
<feMorphology radius="4" operator="dilate" in="SourceAlpha" result="effect1_dropShadow_63_481"/>
<feOffset dy="4"/>
<feGaussianBlur stdDeviation="2"/>
<feComposite in2="hardAlpha" operator="out"/>
<feColorMatrix type="matrix" values="0 0 0 0 0 0 0 0 0 0 0 0 0 0 0 0 0 0 0.25 0"/>
<feBlend mode="normal" in2="BackgroundImageFix" result="effect1_dropShadow_63_481"/>
<feBlend mode="normal" in="SourceGraphic" in2="effect1_dropShadow_63_481" result="shape"/>
</filter>
</defs>
</svg>
